<mxfile host="drawio-plugin" modified="2023-04-10T11:05:51.157Z" agent="5.0 (Windows NT 6.2; Win64; x64) AppleWebKit/537.36 (KHTML, like Gecko) Chrome/104.0.5112.102 Safari/537.36" etag="EtJ1d9KDgejHvMbUItzk" version="20.5.3" type="embed"><diagram id="wKgXzAg9ojGlnTEC1lOn" name="Diagrama de classes"><mxGraphModel dx="2763" dy="719" grid="1" gridSize="10" guides="1" tooltips="1" connect="1" arrows="1" fold="1" page="1" pageScale="1" pageWidth="1654" pageHeight="1169" background="#F4F1DE" math="0" shadow="0"><root><mxCell id="0"/><mxCell id="1" parent="0"/><mxCell id="VG4BFcTrAJ-5tfo0W3qp-12" style="edgeStyle=none;rounded=1;orthogonalLoop=1;jettySize=auto;html=1;strokeColor=#E07A5F;fontSize=12;fontColor=#393C56;endArrow=none;endFill=0;startSize=8;endSize=8;fillColor=#F2CC8F;dashed=1;labelBackgroundColor=#F4F1DE;" parent="1" source="vmr4mE0VQ1Etyp4nwSTQ-23" edge="1"><mxGeometry relative="1" as="geometry"><mxPoint x="40" y="840" as="targetPoint"/></mxGeometry></mxCell><mxCell id="vmr4mE0VQ1Etyp4nwSTQ-23" value="Contrato" style="swimlane;fontStyle=1;childLayout=stackLayout;horizontal=1;startSize=30;horizontalStack=0;resizeParent=1;resizeParentMax=0;resizeLast=0;collapsible=1;marginBottom=0;fillColor=#F2CC8F;strokeColor=#E07A5F;fontColor=#393C56;rounded=0;fontSize=13;labelBackgroundColor=none;strokeWidth=1;" parent="1" vertex="1"><mxGeometry x="-180" y="950" width="240" height="300" as="geometry"/></mxCell><mxCell id="vmr4mE0VQ1Etyp4nwSTQ-24" value="contratoID" style="text;strokeColor=#E07A5F;fillColor=none;align=left;verticalAlign=middle;spacingLeft=4;spacingRight=4;overflow=hidden;points=[[0,0.5],[1,0.5]];portConstraint=eastwest;rotatable=0;fontColor=#393C56;rounded=0;shadow=0;glass=0;fontStyle=1;labelBackgroundColor=none;strokeWidth=1;" parent="vmr4mE0VQ1Etyp4nwSTQ-23" vertex="1"><mxGeometry y="30" width="240" height="30" as="geometry"/></mxCell><mxCell id="vmr4mE0VQ1Etyp4nwSTQ-25" value="situacaoContrato" style="text;strokeColor=#E07A5F;fillColor=none;align=left;verticalAlign=middle;spacingLeft=4;spacingRight=4;overflow=hidden;points=[[0,0.5],[1,0.5]];portConstraint=eastwest;rotatable=0;fontColor=#393C56;rounded=0;labelBackgroundColor=none;strokeWidth=1;" parent="vmr4mE0VQ1Etyp4nwSTQ-23" vertex="1"><mxGeometry y="60" width="240" height="30" as="geometry"/></mxCell><mxCell id="vmr4mE0VQ1Etyp4nwSTQ-31" value="numeroContrato" style="text;strokeColor=#E07A5F;fillColor=none;align=left;verticalAlign=middle;spacingLeft=4;spacingRight=4;overflow=hidden;points=[[0,0.5],[1,0.5]];portConstraint=eastwest;rotatable=0;fontColor=#393C56;rounded=0;labelBackgroundColor=none;strokeWidth=1;" parent="vmr4mE0VQ1Etyp4nwSTQ-23" vertex="1"><mxGeometry y="90" width="240" height="30" as="geometry"/></mxCell><mxCell id="vmr4mE0VQ1Etyp4nwSTQ-26" value="tipoContrato_MatriculaRematricula" style="text;strokeColor=#E07A5F;fillColor=none;align=left;verticalAlign=middle;spacingLeft=4;spacingRight=4;overflow=hidden;points=[[0,0.5],[1,0.5]];portConstraint=eastwest;rotatable=0;fontColor=#393C56;rounded=0;labelBackgroundColor=none;strokeWidth=1;" parent="vmr4mE0VQ1Etyp4nwSTQ-23" vertex="1"><mxGeometry y="120" width="240" height="30" as="geometry"/></mxCell><mxCell id="vmr4mE0VQ1Etyp4nwSTQ-27" value="contratante" style="text;strokeColor=#E07A5F;fillColor=none;align=left;verticalAlign=middle;spacingLeft=4;spacingRight=4;overflow=hidden;points=[[0,0.5],[1,0.5]];portConstraint=eastwest;rotatable=0;fontColor=#393C56;rounded=0;labelBackgroundColor=none;strokeWidth=1;" parent="vmr4mE0VQ1Etyp4nwSTQ-23" vertex="1"><mxGeometry y="150" width="240" height="30" as="geometry"/></mxCell><mxCell id="3MisZbKRAyRNBX8BG2Sv-16" value="modalidade" style="text;strokeColor=#E07A5F;fillColor=none;align=left;verticalAlign=middle;spacingLeft=4;spacingRight=4;overflow=hidden;points=[[0,0.5],[1,0.5]];portConstraint=eastwest;rotatable=0;rounded=0;labelBackgroundColor=none;fontColor=#393C56;strokeWidth=1;" parent="vmr4mE0VQ1Etyp4nwSTQ-23" vertex="1"><mxGeometry y="180" width="240" height="30" as="geometry"/></mxCell><mxCell id="vmr4mE0VQ1Etyp4nwSTQ-29" value="dataInicio" style="text;strokeColor=#E07A5F;fillColor=none;align=left;verticalAlign=middle;spacingLeft=4;spacingRight=4;overflow=hidden;points=[[0,0.5],[1,0.5]];portConstraint=eastwest;rotatable=0;fontColor=#393C56;rounded=0;labelBackgroundColor=none;strokeWidth=1;" parent="vmr4mE0VQ1Etyp4nwSTQ-23" vertex="1"><mxGeometry y="210" width="240" height="30" as="geometry"/></mxCell><mxCell id="vmr4mE0VQ1Etyp4nwSTQ-30" value="dataTermino" style="text;strokeColor=#E07A5F;fillColor=none;align=left;verticalAlign=middle;spacingLeft=4;spacingRight=4;overflow=hidden;points=[[0,0.5],[1,0.5]];portConstraint=eastwest;rotatable=0;fontColor=#393C56;rounded=0;labelBackgroundColor=none;strokeWidth=1;" parent="vmr4mE0VQ1Etyp4nwSTQ-23" vertex="1"><mxGeometry y="240" width="240" height="30" as="geometry"/></mxCell><mxCell id="vmr4mE0VQ1Etyp4nwSTQ-32" value="matricula" style="text;strokeColor=#E07A5F;fillColor=none;align=left;verticalAlign=middle;spacingLeft=4;spacingRight=4;overflow=hidden;points=[[0,0.5],[1,0.5]];portConstraint=eastwest;rotatable=0;rounded=0;labelBackgroundColor=none;fontColor=#393C56;strokeWidth=1;" parent="vmr4mE0VQ1Etyp4nwSTQ-23" vertex="1"><mxGeometry y="270" width="240" height="30" as="geometry"/></mxCell><mxCell id="vmr4mE0VQ1Etyp4nwSTQ-38" value="Matricula" style="swimlane;fontStyle=1;childLayout=stackLayout;horizontal=1;startSize=30;horizontalStack=0;resizeParent=1;resizeParentMax=0;resizeLast=0;collapsible=1;marginBottom=0;fillColor=#F2CC8F;strokeColor=#E07A5F;fontColor=#393C56;rounded=0;fontSize=13;labelBackgroundColor=none;strokeWidth=1;" parent="1" vertex="1"><mxGeometry x="200" y="700" width="160" height="270" as="geometry"/></mxCell><mxCell id="vmr4mE0VQ1Etyp4nwSTQ-39" value="matriculaID" style="text;strokeColor=#E07A5F;fillColor=none;align=left;verticalAlign=middle;spacingLeft=4;spacingRight=4;overflow=hidden;points=[[0,0.5],[1,0.5]];portConstraint=eastwest;rotatable=0;fontColor=#393C56;rounded=0;shadow=0;glass=0;fontStyle=1;labelBackgroundColor=none;strokeWidth=1;" parent="vmr4mE0VQ1Etyp4nwSTQ-38" vertex="1"><mxGeometry y="30" width="160" height="30" as="geometry"/></mxCell><mxCell id="vmr4mE0VQ1Etyp4nwSTQ-40" value="atual" style="text;strokeColor=#E07A5F;fillColor=none;align=left;verticalAlign=middle;spacingLeft=4;spacingRight=4;overflow=hidden;points=[[0,0.5],[1,0.5]];portConstraint=eastwest;rotatable=0;fontColor=#393C56;rounded=0;labelBackgroundColor=none;strokeWidth=1;" parent="vmr4mE0VQ1Etyp4nwSTQ-38" vertex="1"><mxGeometry y="60" width="160" height="30" as="geometry"/></mxCell><mxCell id="vmr4mE0VQ1Etyp4nwSTQ-42" value="curso" style="text;strokeColor=#E07A5F;fillColor=#F2CC8F;align=left;verticalAlign=middle;spacingLeft=4;spacingRight=4;overflow=hidden;points=[[0,0.5],[1,0.5]];portConstraint=eastwest;rotatable=0;rounded=0;labelBackgroundColor=none;fontColor=#393C56;strokeWidth=1;" parent="vmr4mE0VQ1Etyp4nwSTQ-38" vertex="1"><mxGeometry y="90" width="160" height="30" as="geometry"/></mxCell><mxCell id="vmr4mE0VQ1Etyp4nwSTQ-46" value="inicioMatricula" style="text;strokeColor=#E07A5F;fillColor=none;align=left;verticalAlign=middle;spacingLeft=4;spacingRight=4;overflow=hidden;points=[[0,0.5],[1,0.5]];portConstraint=eastwest;rotatable=0;fontColor=#393C56;rounded=0;labelBackgroundColor=none;strokeWidth=1;" parent="vmr4mE0VQ1Etyp4nwSTQ-38" vertex="1"><mxGeometry y="120" width="160" height="30" as="geometry"/></mxCell><mxCell id="vmr4mE0VQ1Etyp4nwSTQ-47" value="fimMatricula" style="text;strokeColor=#E07A5F;fillColor=none;align=left;verticalAlign=middle;spacingLeft=4;spacingRight=4;overflow=hidden;points=[[0,0.5],[1,0.5]];portConstraint=eastwest;rotatable=0;fontColor=#393C56;rounded=0;labelBackgroundColor=none;strokeWidth=1;" parent="vmr4mE0VQ1Etyp4nwSTQ-38" vertex="1"><mxGeometry y="150" width="160" height="30" as="geometry"/></mxCell><mxCell id="vmr4mE0VQ1Etyp4nwSTQ-48" value="professor" style="text;strokeColor=#E07A5F;fillColor=none;align=left;verticalAlign=middle;spacingLeft=4;spacingRight=4;overflow=hidden;points=[[0,0.5],[1,0.5]];portConstraint=eastwest;rotatable=0;fontColor=#393C56;rounded=0;labelBackgroundColor=none;strokeWidth=1;" parent="vmr4mE0VQ1Etyp4nwSTQ-38" vertex="1"><mxGeometry y="180" width="160" height="30" as="geometry"/></mxCell><mxCell id="VG4BFcTrAJ-5tfo0W3qp-19" value="diasDaSemana" style="text;strokeColor=#E07A5F;fillColor=none;align=left;verticalAlign=middle;spacingLeft=4;spacingRight=4;overflow=hidden;points=[[0,0.5],[1,0.5]];portConstraint=eastwest;rotatable=0;fontColor=#393C56;rounded=0;labelBackgroundColor=none;strokeWidth=1;" parent="vmr4mE0VQ1Etyp4nwSTQ-38" vertex="1"><mxGeometry y="210" width="160" height="30" as="geometry"/></mxCell><mxCell id="vmr4mE0VQ1Etyp4nwSTQ-51" value="horario" style="text;strokeColor=#E07A5F;fillColor=none;align=left;verticalAlign=middle;spacingLeft=4;spacingRight=4;overflow=hidden;points=[[0,0.5],[1,0.5]];portConstraint=eastwest;rotatable=0;fontColor=#393C56;rounded=0;labelBackgroundColor=none;strokeWidth=1;" parent="vmr4mE0VQ1Etyp4nwSTQ-38" vertex="1"><mxGeometry y="240" width="160" height="30" as="geometry"/></mxCell><mxCell id="vmr4mE0VQ1Etyp4nwSTQ-58" value="Endereco" style="swimlane;fontStyle=1;childLayout=stackLayout;horizontal=1;startSize=30;horizontalStack=0;resizeParent=1;resizeParentMax=0;resizeLast=0;collapsible=1;marginBottom=0;fillColor=#F2CC8F;strokeColor=#E07A5F;fontColor=#393C56;rounded=0;fontSize=13;labelBackgroundColor=none;strokeWidth=1;" parent="1" vertex="1"><mxGeometry x="-1080" y="429" width="160" height="300" as="geometry"/></mxCell><mxCell id="vmr4mE0VQ1Etyp4nwSTQ-59" value="enderecoID" style="text;strokeColor=#E07A5F;fillColor=none;align=left;verticalAlign=middle;spacingLeft=4;spacingRight=4;overflow=hidden;points=[[0,0.5],[1,0.5]];portConstraint=eastwest;rotatable=0;fontColor=#393C56;rounded=0;shadow=0;glass=0;fontStyle=1;labelBackgroundColor=none;strokeWidth=1;" parent="vmr4mE0VQ1Etyp4nwSTQ-58" vertex="1"><mxGeometry y="30" width="160" height="30" as="geometry"/></mxCell><mxCell id="vmr4mE0VQ1Etyp4nwSTQ-9" value="CEP" style="text;strokeColor=#E07A5F;fillColor=none;align=left;verticalAlign=middle;spacingLeft=4;spacingRight=4;overflow=hidden;points=[[0,0.5],[1,0.5]];portConstraint=eastwest;rotatable=0;fontColor=#393C56;rounded=0;labelBackgroundColor=none;strokeWidth=1;" parent="vmr4mE0VQ1Etyp4nwSTQ-58" vertex="1"><mxGeometry y="60" width="160" height="30" as="geometry"/></mxCell><mxCell id="vmr4mE0VQ1Etyp4nwSTQ-14" value="estadoAtual" style="text;strokeColor=#E07A5F;fillColor=none;align=left;verticalAlign=middle;spacingLeft=4;spacingRight=4;overflow=hidden;points=[[0,0.5],[1,0.5]];portConstraint=eastwest;rotatable=0;fontColor=#393C56;rounded=0;labelBackgroundColor=none;strokeWidth=1;" parent="vmr4mE0VQ1Etyp4nwSTQ-58" vertex="1"><mxGeometry y="90" width="160" height="30" as="geometry"/></mxCell><mxCell id="vmr4mE0VQ1Etyp4nwSTQ-16" value="cidadeAtual" style="text;strokeColor=#E07A5F;fillColor=none;align=left;verticalAlign=middle;spacingLeft=4;spacingRight=4;overflow=hidden;points=[[0,0.5],[1,0.5]];portConstraint=eastwest;rotatable=0;fontColor=#393C56;rounded=0;labelBackgroundColor=none;strokeWidth=1;" parent="vmr4mE0VQ1Etyp4nwSTQ-58" vertex="1"><mxGeometry y="120" width="160" height="30" as="geometry"/></mxCell><mxCell id="vmr4mE0VQ1Etyp4nwSTQ-60" value="tipo (rua/avenida)" style="text;strokeColor=#E07A5F;fillColor=none;align=left;verticalAlign=middle;spacingLeft=4;spacingRight=4;overflow=hidden;points=[[0,0.5],[1,0.5]];portConstraint=eastwest;rotatable=0;fontColor=#393C56;rounded=0;labelBackgroundColor=none;strokeWidth=1;" parent="vmr4mE0VQ1Etyp4nwSTQ-58" vertex="1"><mxGeometry y="150" width="160" height="30" as="geometry"/></mxCell><mxCell id="vmr4mE0VQ1Etyp4nwSTQ-61" value="nome" style="text;strokeColor=#E07A5F;fillColor=none;align=left;verticalAlign=middle;spacingLeft=4;spacingRight=4;overflow=hidden;points=[[0,0.5],[1,0.5]];portConstraint=eastwest;rotatable=0;fontColor=#393C56;rounded=0;labelBackgroundColor=none;strokeWidth=1;" parent="vmr4mE0VQ1Etyp4nwSTQ-58" vertex="1"><mxGeometry y="180" width="160" height="30" as="geometry"/></mxCell><mxCell id="vmr4mE0VQ1Etyp4nwSTQ-62" value="numero" style="text;strokeColor=#E07A5F;fillColor=none;align=left;verticalAlign=middle;spacingLeft=4;spacingRight=4;overflow=hidden;points=[[0,0.5],[1,0.5]];portConstraint=eastwest;rotatable=0;fontColor=#393C56;rounded=0;labelBackgroundColor=none;strokeWidth=1;" parent="vmr4mE0VQ1Etyp4nwSTQ-58" vertex="1"><mxGeometry y="210" width="160" height="30" as="geometry"/></mxCell><mxCell id="vmr4mE0VQ1Etyp4nwSTQ-63" value="complemento" style="text;strokeColor=#E07A5F;fillColor=none;align=left;verticalAlign=middle;spacingLeft=4;spacingRight=4;overflow=hidden;points=[[0,0.5],[1,0.5]];portConstraint=eastwest;rotatable=0;fontColor=#393C56;rounded=0;labelBackgroundColor=none;strokeWidth=1;" parent="vmr4mE0VQ1Etyp4nwSTQ-58" vertex="1"><mxGeometry y="240" width="160" height="30" as="geometry"/></mxCell><mxCell id="vmr4mE0VQ1Etyp4nwSTQ-64" value="bairro" style="text;strokeColor=#E07A5F;fillColor=none;align=left;verticalAlign=middle;spacingLeft=4;spacingRight=4;overflow=hidden;points=[[0,0.5],[1,0.5]];portConstraint=eastwest;rotatable=0;fontColor=#393C56;rounded=0;labelBackgroundColor=none;strokeWidth=1;" parent="vmr4mE0VQ1Etyp4nwSTQ-58" vertex="1"><mxGeometry y="270" width="160" height="30" as="geometry"/></mxCell><mxCell id="VG4BFcTrAJ-5tfo0W3qp-17" style="edgeStyle=none;rounded=0;orthogonalLoop=1;jettySize=auto;html=1;strokeColor=#E07A5F;fontSize=12;fontColor=#393C56;endArrow=none;endFill=0;startSize=8;endSize=14;fillColor=#F2CC8F;labelBackgroundColor=#F4F1DE;" parent="1" source="vmr4mE0VQ1Etyp4nwSTQ-72" target="vmr4mE0VQ1Etyp4nwSTQ-38" edge="1"><mxGeometry relative="1" as="geometry"><Array as="points"><mxPoint x="40" y="840"/></Array></mxGeometry></mxCell><mxCell id="vmr4mE0VQ1Etyp4nwSTQ-72" value="Aluno" style="swimlane;fontStyle=1;childLayout=stackLayout;horizontal=1;startSize=30;horizontalStack=0;resizeParent=1;resizeParentMax=0;resizeLast=0;collapsible=1;marginBottom=0;fillColor=#F2CC8F;strokeColor=#E07A5F;fontColor=#393C56;rounded=0;fontSize=13;labelBackgroundColor=none;strokeWidth=1;" parent="1" vertex="1"><mxGeometry x="-320" y="720" width="160" height="150" as="geometry"/></mxCell><mxCell id="vmr4mE0VQ1Etyp4nwSTQ-74" value="numeroMatricula" style="text;strokeColor=#E07A5F;fillColor=none;align=left;verticalAlign=middle;spacingLeft=4;spacingRight=4;overflow=hidden;points=[[0,0.5],[1,0.5]];portConstraint=eastwest;rotatable=0;fontColor=#393C56;rounded=0;labelBackgroundColor=none;strokeWidth=1;" parent="vmr4mE0VQ1Etyp4nwSTQ-72" vertex="1"><mxGeometry y="30" width="160" height="30" as="geometry"/></mxCell><mxCell id="vmr4mE0VQ1Etyp4nwSTQ-78" value="login" style="text;strokeColor=#E07A5F;fillColor=none;align=left;verticalAlign=middle;spacingLeft=4;spacingRight=4;overflow=hidden;points=[[0,0.5],[1,0.5]];portConstraint=eastwest;rotatable=0;fontColor=#393C56;rounded=0;labelBackgroundColor=none;strokeWidth=1;" parent="vmr4mE0VQ1Etyp4nwSTQ-72" vertex="1"><mxGeometry y="60" width="160" height="30" as="geometry"/></mxCell><mxCell id="vmr4mE0VQ1Etyp4nwSTQ-79" value="senha" style="text;strokeColor=#E07A5F;fillColor=none;align=left;verticalAlign=middle;spacingLeft=4;spacingRight=4;overflow=hidden;points=[[0,0.5],[1,0.5]];portConstraint=eastwest;rotatable=0;fontColor=#393C56;rounded=0;labelBackgroundColor=none;strokeWidth=1;" parent="vmr4mE0VQ1Etyp4nwSTQ-72" vertex="1"><mxGeometry y="90" width="160" height="30" as="geometry"/></mxCell><mxCell id="vmr4mE0VQ1Etyp4nwSTQ-80" value="contrato" style="text;strokeColor=#E07A5F;fillColor=#F2CC8F;align=left;verticalAlign=middle;spacingLeft=4;spacingRight=4;overflow=hidden;points=[[0,0.5],[1,0.5]];portConstraint=eastwest;rotatable=0;rounded=0;labelBackgroundColor=none;fontColor=#393C56;strokeWidth=1;" parent="vmr4mE0VQ1Etyp4nwSTQ-72" vertex="1"><mxGeometry y="120" width="160" height="30" as="geometry"/></mxCell><mxCell id="vmr4mE0VQ1Etyp4nwSTQ-104" value="ID_ClienteAluno =&amp;nbsp; numero sequencial do cadastro + numero sequencial do contrato" style="text;html=1;align=center;verticalAlign=middle;resizable=0;points=[];autosize=1;strokeColor=#E07A5F;fillColor=none;fontColor=#393C56;labelBackgroundColor=none;rounded=0;strokeWidth=1;" parent="1" vertex="1"><mxGeometry x="530" y="40" width="470" height="30" as="geometry"/></mxCell><mxCell id="vmr4mE0VQ1Etyp4nwSTQ-111" style="edgeStyle=orthogonalEdgeStyle;rounded=0;orthogonalLoop=1;jettySize=auto;html=1;exitX=0.5;exitY=1;exitDx=0;exitDy=0;endArrow=none;endFill=0;fontColor=#393C56;strokeColor=#E07A5F;labelBackgroundColor=none;strokeWidth=1;" parent="1" edge="1"><mxGeometry relative="1" as="geometry"><mxPoint x="2235" y="970" as="sourcePoint"/><mxPoint x="2235" y="970" as="targetPoint"/></mxGeometry></mxCell><mxCell id="uFJoaVmChpkuxRk4t4Tf-9" value="DadoProfissional" style="swimlane;fontStyle=1;childLayout=stackLayout;horizontal=1;startSize=30;horizontalStack=0;resizeParent=1;resizeParentMax=0;resizeLast=0;collapsible=1;marginBottom=0;fillColor=#F2CC8F;strokeColor=#E07A5F;fontColor=#393C56;rounded=0;fontSize=13;labelBackgroundColor=none;strokeWidth=1;" parent="1" vertex="1"><mxGeometry x="-660" y="800" width="160" height="150" as="geometry"/></mxCell><mxCell id="3MisZbKRAyRNBX8BG2Sv-2" value="·dadoProfissionalID" style="text;strokeColor=#E07A5F;fillColor=none;align=left;verticalAlign=middle;spacingLeft=4;spacingRight=4;overflow=hidden;points=[[0,0.5],[1,0.5]];portConstraint=eastwest;rotatable=0;fontColor=#393C56;rounded=0;labelBackgroundColor=none;strokeWidth=1;" parent="uFJoaVmChpkuxRk4t4Tf-9" vertex="1"><mxGeometry y="30" width="160" height="30" as="geometry"/></mxCell><mxCell id="uFJoaVmChpkuxRk4t4Tf-11" value="profissaoFuncaoCargo" style="text;strokeColor=#E07A5F;fillColor=none;align=left;verticalAlign=middle;spacingLeft=4;spacingRight=4;overflow=hidden;points=[[0,0.5],[1,0.5]];portConstraint=eastwest;rotatable=0;fontColor=#393C56;rounded=0;labelBackgroundColor=none;strokeWidth=1;" parent="uFJoaVmChpkuxRk4t4Tf-9" vertex="1"><mxGeometry y="60" width="160" height="30" as="geometry"/></mxCell><mxCell id="uFJoaVmChpkuxRk4t4Tf-12" value="orgaoInstituicaoEmpresa" style="text;strokeColor=#E07A5F;fillColor=none;align=left;verticalAlign=middle;spacingLeft=4;spacingRight=4;overflow=hidden;points=[[0,0.5],[1,0.5]];portConstraint=eastwest;rotatable=0;fontColor=#393C56;rounded=0;labelBackgroundColor=none;strokeWidth=1;" parent="uFJoaVmChpkuxRk4t4Tf-9" vertex="1"><mxGeometry y="90" width="160" height="30" as="geometry"/></mxCell><mxCell id="uFJoaVmChpkuxRk4t4Tf-13" value="outros" style="text;strokeColor=#E07A5F;fillColor=none;align=left;verticalAlign=middle;spacingLeft=4;spacingRight=4;overflow=hidden;points=[[0,0.5],[1,0.5]];portConstraint=eastwest;rotatable=0;fontColor=#393C56;rounded=0;labelBackgroundColor=none;strokeWidth=1;" parent="uFJoaVmChpkuxRk4t4Tf-9" vertex="1"><mxGeometry y="120" width="160" height="30" as="geometry"/></mxCell><mxCell id="VG4BFcTrAJ-5tfo0W3qp-13" style="edgeStyle=none;rounded=1;orthogonalLoop=1;jettySize=auto;html=1;strokeColor=#E07A5F;fontSize=12;fontColor=#393C56;endArrow=none;endFill=0;startSize=8;endSize=14;fillColor=#F2CC8F;entryX=0;entryY=0.5;entryDx=0;entryDy=0;labelBackgroundColor=#F4F1DE;" parent="1" source="uFJoaVmChpkuxRk4t4Tf-19" target="vmr4mE0VQ1Etyp4nwSTQ-20" edge="1"><mxGeometry relative="1" as="geometry"/></mxCell><mxCell id="uFJoaVmChpkuxRk4t4Tf-19" value="DadoAcademico" style="swimlane;fontStyle=1;childLayout=stackLayout;horizontal=1;startSize=30;horizontalStack=0;resizeParent=1;resizeParentMax=0;resizeLast=0;collapsible=1;marginBottom=0;fillColor=#F2CC8F;strokeColor=#E07A5F;fontColor=#393C56;rounded=0;fontSize=13;labelBackgroundColor=none;strokeWidth=1;" parent="1" vertex="1"><mxGeometry x="-950" y="800" width="160" height="180" as="geometry"/></mxCell><mxCell id="3MisZbKRAyRNBX8BG2Sv-1" value="·dadoAcademicoID" style="text;strokeColor=#E07A5F;fillColor=none;align=left;verticalAlign=middle;spacingLeft=4;spacingRight=4;overflow=hidden;points=[[0,0.5],[1,0.5]];portConstraint=eastwest;rotatable=0;fontColor=#393C56;rounded=0;labelBackgroundColor=none;strokeWidth=1;" parent="uFJoaVmChpkuxRk4t4Tf-19" vertex="1"><mxGeometry y="30" width="160" height="30" as="geometry"/></mxCell><mxCell id="uFJoaVmChpkuxRk4t4Tf-20" value="serieEscolar" style="text;strokeColor=#E07A5F;fillColor=none;align=left;verticalAlign=middle;spacingLeft=4;spacingRight=4;overflow=hidden;points=[[0,0.5],[1,0.5]];portConstraint=eastwest;rotatable=0;fontColor=#393C56;rounded=0;labelBackgroundColor=none;strokeWidth=1;" parent="uFJoaVmChpkuxRk4t4Tf-19" vertex="1"><mxGeometry y="60" width="160" height="30" as="geometry"/></mxCell><mxCell id="uFJoaVmChpkuxRk4t4Tf-21" value="escolaridadeAtual" style="text;strokeColor=#E07A5F;fillColor=none;align=left;verticalAlign=middle;spacingLeft=4;spacingRight=4;overflow=hidden;points=[[0,0.5],[1,0.5]];portConstraint=eastwest;rotatable=0;fontColor=#393C56;rounded=0;labelBackgroundColor=none;strokeWidth=1;" parent="uFJoaVmChpkuxRk4t4Tf-19" vertex="1"><mxGeometry y="90" width="160" height="30" as="geometry"/></mxCell><mxCell id="uFJoaVmChpkuxRk4t4Tf-22" value="orgaoInstituicaoEmpresa" style="text;strokeColor=#E07A5F;fillColor=none;align=left;verticalAlign=middle;spacingLeft=4;spacingRight=4;overflow=hidden;points=[[0,0.5],[1,0.5]];portConstraint=eastwest;rotatable=0;fontColor=#393C56;rounded=0;labelBackgroundColor=none;strokeWidth=1;" parent="uFJoaVmChpkuxRk4t4Tf-19" vertex="1"><mxGeometry y="120" width="160" height="30" as="geometry"/></mxCell><mxCell id="uFJoaVmChpkuxRk4t4Tf-23" value="outros" style="text;strokeColor=#E07A5F;fillColor=none;align=left;verticalAlign=middle;spacingLeft=4;spacingRight=4;overflow=hidden;points=[[0,0.5],[1,0.5]];portConstraint=eastwest;rotatable=0;fontColor=#393C56;rounded=0;labelBackgroundColor=none;strokeWidth=1;" parent="uFJoaVmChpkuxRk4t4Tf-19" vertex="1"><mxGeometry y="150" width="160" height="30" as="geometry"/></mxCell><mxCell id="VG4BFcTrAJ-5tfo0W3qp-18" style="edgeStyle=none;rounded=0;orthogonalLoop=1;jettySize=auto;html=1;strokeColor=#E07A5F;fontSize=12;fontColor=#393C56;endArrow=none;endFill=0;startSize=8;endSize=14;fillColor=#F2CC8F;entryX=1;entryY=0.5;entryDx=0;entryDy=0;labelBackgroundColor=#F4F1DE;" parent="1" source="OzpYOp_O2W1lYUF9wHdp-2" target="vmr4mE0VQ1Etyp4nwSTQ-48" edge="1"><mxGeometry relative="1" as="geometry"><Array as="points"><mxPoint x="480" y="880"/></Array></mxGeometry></mxCell><mxCell id="OzpYOp_O2W1lYUF9wHdp-2" value="Professor" style="swimlane;fontStyle=1;childLayout=stackLayout;horizontal=1;startSize=30;horizontalStack=0;resizeParent=1;resizeParentMax=0;resizeLast=0;collapsible=1;marginBottom=0;fillColor=#F2CC8F;strokeColor=#E07A5F;fontColor=#393C56;rounded=0;fontSize=13;labelBackgroundColor=none;strokeWidth=1;" parent="1" vertex="1"><mxGeometry x="290" y="330" width="160" height="120" as="geometry"/></mxCell><mxCell id="VG4BFcTrAJ-5tfo0W3qp-1" value="especialidade" style="text;strokeColor=#E07A5F;fillColor=none;align=left;verticalAlign=middle;spacingLeft=4;spacingRight=4;overflow=hidden;points=[[0,0.5],[1,0.5]];portConstraint=eastwest;rotatable=0;fontColor=#393C56;rounded=0;labelBackgroundColor=none;strokeWidth=1;" parent="OzpYOp_O2W1lYUF9wHdp-2" vertex="1"><mxGeometry y="30" width="160" height="30" as="geometry"/></mxCell><mxCell id="VG4BFcTrAJ-5tfo0W3qp-2" value="login" style="text;strokeColor=#E07A5F;fillColor=none;align=left;verticalAlign=middle;spacingLeft=4;spacingRight=4;overflow=hidden;points=[[0,0.5],[1,0.5]];portConstraint=eastwest;rotatable=0;fontColor=#393C56;rounded=0;labelBackgroundColor=none;strokeWidth=1;" parent="OzpYOp_O2W1lYUF9wHdp-2" vertex="1"><mxGeometry y="60" width="160" height="30" as="geometry"/></mxCell><mxCell id="VG4BFcTrAJ-5tfo0W3qp-3" value="senha" style="text;strokeColor=#E07A5F;fillColor=none;align=left;verticalAlign=middle;spacingLeft=4;spacingRight=4;overflow=hidden;points=[[0,0.5],[1,0.5]];portConstraint=eastwest;rotatable=0;fontColor=#393C56;rounded=0;labelBackgroundColor=none;strokeWidth=1;" parent="OzpYOp_O2W1lYUF9wHdp-2" vertex="1"><mxGeometry y="90" width="160" height="30" as="geometry"/></mxCell><mxCell id="VG4BFcTrAJ-5tfo0W3qp-7" style="orthogonalLoop=1;jettySize=auto;html=1;strokeColor=#E07A5F;fontSize=12;fontColor=#393C56;endArrow=block;endFill=0;startSize=8;endSize=14;fillColor=#F2CC8F;labelBackgroundColor=#F4F1DE;" parent="1" source="OzpYOp_O2W1lYUF9wHdp-2" target="vmr4mE0VQ1Etyp4nwSTQ-1" edge="1"><mxGeometry relative="1" as="geometry"><mxPoint x="-350" y="350" as="sourcePoint"/><mxPoint x="-480" y="309" as="targetPoint"/></mxGeometry></mxCell><mxCell id="VG4BFcTrAJ-5tfo0W3qp-8" style="rounded=1;orthogonalLoop=1;jettySize=auto;html=1;fontSize=12;endArrow=block;endFill=0;startSize=8;endSize=14;labelBackgroundColor=none;strokeColor=#E07A5F;fontColor=#393C56;strokeWidth=1;" parent="1" source="vmr4mE0VQ1Etyp4nwSTQ-72" edge="1"><mxGeometry relative="1" as="geometry"><mxPoint x="-300" y="785" as="sourcePoint"/><mxPoint x="-480" y="504" as="targetPoint"/></mxGeometry></mxCell><mxCell id="VG4BFcTrAJ-5tfo0W3qp-10" style="rounded=1;orthogonalLoop=1;jettySize=auto;html=1;fontSize=12;startSize=8;endSize=8;endArrow=none;endFill=0;labelBackgroundColor=none;strokeColor=#E07A5F;fontColor=#393C56;strokeWidth=1;" parent="1" source="vmr4mE0VQ1Etyp4nwSTQ-58" target="vmr4mE0VQ1Etyp4nwSTQ-12" edge="1"><mxGeometry relative="1" as="geometry"><mxPoint x="-1060" y="600" as="sourcePoint"/><mxPoint x="-680" y="579" as="targetPoint"/></mxGeometry></mxCell><mxCell id="VG4BFcTrAJ-5tfo0W3qp-11" style="rounded=1;orthogonalLoop=1;jettySize=auto;html=1;strokeColor=#E07A5F;fontSize=12;fontColor=#393C56;endArrow=none;endFill=0;startSize=8;endSize=8;fillColor=#F2CC8F;labelBackgroundColor=none;strokeWidth=1;" parent="1" source="uFJoaVmChpkuxRk4t4Tf-9" target="uFJoaVmChpkuxRk4t4Tf-25" edge="1"><mxGeometry relative="1" as="geometry"><mxPoint x="-590" y="840" as="sourcePoint"/><mxPoint x="-680" y="729" as="targetPoint"/></mxGeometry></mxCell><mxCell id="vmr4mE0VQ1Etyp4nwSTQ-1" value="Pessoa" style="swimlane;fontStyle=1;childLayout=stackLayout;horizontal=1;startSize=30;horizontalStack=0;resizeParent=1;resizeParentMax=0;resizeLast=0;collapsible=1;marginBottom=0;fillColor=#F2CC8F;strokeColor=#E07A5F;fontColor=#393C56;rounded=0;fontSize=13;labelBackgroundColor=none;strokeWidth=1;" parent="1" vertex="1"><mxGeometry x="-680" y="264" width="200" height="480" as="geometry"/></mxCell><mxCell id="vmr4mE0VQ1Etyp4nwSTQ-2" value="pessoaID" style="text;strokeColor=#E07A5F;fillColor=none;align=left;verticalAlign=middle;spacingLeft=4;spacingRight=4;overflow=hidden;points=[[0,0.5],[1,0.5]];portConstraint=eastwest;rotatable=0;fontColor=#393C56;rounded=0;shadow=0;glass=0;fontStyle=1;labelBackgroundColor=none;strokeWidth=1;" parent="vmr4mE0VQ1Etyp4nwSTQ-1" vertex="1"><mxGeometry y="30" width="200" height="30" as="geometry"/></mxCell><mxCell id="vmr4mE0VQ1Etyp4nwSTQ-3" value="CPF" style="text;strokeColor=#E07A5F;fillColor=none;align=left;verticalAlign=middle;spacingLeft=4;spacingRight=4;overflow=hidden;points=[[0,0.5],[1,0.5]];portConstraint=eastwest;rotatable=0;fontColor=#393C56;rounded=0;labelBackgroundColor=none;fontStyle=1;strokeWidth=1;" parent="vmr4mE0VQ1Etyp4nwSTQ-1" vertex="1"><mxGeometry y="60" width="200" height="30" as="geometry"/></mxCell><mxCell id="vmr4mE0VQ1Etyp4nwSTQ-4" value="RG" style="text;strokeColor=#E07A5F;fillColor=none;align=left;verticalAlign=middle;spacingLeft=4;spacingRight=4;overflow=hidden;points=[[0,0.5],[1,0.5]];portConstraint=eastwest;rotatable=0;fontColor=#393C56;rounded=0;labelBackgroundColor=none;fontStyle=1;strokeWidth=1;" parent="vmr4mE0VQ1Etyp4nwSTQ-1" vertex="1"><mxGeometry y="90" width="200" height="30" as="geometry"/></mxCell><mxCell id="vmr4mE0VQ1Etyp4nwSTQ-5" value="nome" style="text;strokeColor=#E07A5F;fillColor=none;align=left;verticalAlign=middle;spacingLeft=4;spacingRight=4;overflow=hidden;points=[[0,0.5],[1,0.5]];portConstraint=eastwest;rotatable=0;rounded=0;labelBackgroundColor=none;fontColor=#393C56;strokeWidth=1;" parent="vmr4mE0VQ1Etyp4nwSTQ-1" vertex="1"><mxGeometry y="120" width="200" height="30" as="geometry"/></mxCell><mxCell id="vmr4mE0VQ1Etyp4nwSTQ-6" value="genero" style="text;strokeColor=#E07A5F;fillColor=none;align=left;verticalAlign=middle;spacingLeft=4;spacingRight=4;overflow=hidden;points=[[0,0.5],[1,0.5]];portConstraint=eastwest;rotatable=0;fontColor=#393C56;rounded=0;labelBackgroundColor=none;strokeWidth=1;" parent="vmr4mE0VQ1Etyp4nwSTQ-1" vertex="1"><mxGeometry y="150" width="200" height="30" as="geometry"/></mxCell><mxCell id="vmr4mE0VQ1Etyp4nwSTQ-7" value="dataNascimento" style="text;strokeColor=#E07A5F;fillColor=none;align=left;verticalAlign=middle;spacingLeft=4;spacingRight=4;overflow=hidden;points=[[0,0.5],[1,0.5]];portConstraint=eastwest;rotatable=0;fontColor=#393C56;rounded=0;labelBackgroundColor=none;strokeWidth=1;" parent="vmr4mE0VQ1Etyp4nwSTQ-1" vertex="1"><mxGeometry y="180" width="200" height="30" as="geometry"/></mxCell><mxCell id="vmr4mE0VQ1Etyp4nwSTQ-8" value="email" style="text;strokeColor=#E07A5F;fillColor=none;align=left;verticalAlign=middle;spacingLeft=4;spacingRight=4;overflow=hidden;points=[[0,0.5],[1,0.5]];portConstraint=eastwest;rotatable=0;fontColor=#393C56;rounded=0;labelBackgroundColor=none;strokeWidth=1;" parent="vmr4mE0VQ1Etyp4nwSTQ-1" vertex="1"><mxGeometry y="210" width="200" height="30" as="geometry"/></mxCell><mxCell id="vmr4mE0VQ1Etyp4nwSTQ-10" value="telefoneCelular" style="text;strokeColor=#E07A5F;fillColor=none;align=left;verticalAlign=middle;spacingLeft=4;spacingRight=4;overflow=hidden;points=[[0,0.5],[1,0.5]];portConstraint=eastwest;rotatable=0;fontColor=#393C56;rounded=0;labelBackgroundColor=none;strokeWidth=1;" parent="vmr4mE0VQ1Etyp4nwSTQ-1" vertex="1"><mxGeometry y="240" width="200" height="30" as="geometry"/></mxCell><mxCell id="vmr4mE0VQ1Etyp4nwSTQ-11" value="telefoneFixo" style="text;strokeColor=#E07A5F;fillColor=none;align=left;verticalAlign=middle;spacingLeft=4;spacingRight=4;overflow=hidden;points=[[0,0.5],[1,0.5]];portConstraint=eastwest;rotatable=0;fontColor=#393C56;rounded=0;labelBackgroundColor=none;strokeWidth=1;" parent="vmr4mE0VQ1Etyp4nwSTQ-1" vertex="1"><mxGeometry y="270" width="200" height="30" as="geometry"/></mxCell><mxCell id="vmr4mE0VQ1Etyp4nwSTQ-12" value="endereco" style="text;strokeColor=#E07A5F;fillColor=none;align=left;verticalAlign=middle;spacingLeft=4;spacingRight=4;overflow=hidden;points=[[0,0.5],[1,0.5]];portConstraint=eastwest;rotatable=0;rounded=0;labelBackgroundColor=none;fontColor=#393C56;strokeWidth=1;" parent="vmr4mE0VQ1Etyp4nwSTQ-1" vertex="1"><mxGeometry y="300" width="200" height="30" as="geometry"/></mxCell><mxCell id="vmr4mE0VQ1Etyp4nwSTQ-13" value="estadoNatal" style="text;strokeColor=#E07A5F;fillColor=none;align=left;verticalAlign=middle;spacingLeft=4;spacingRight=4;overflow=hidden;points=[[0,0.5],[1,0.5]];portConstraint=eastwest;rotatable=0;fontColor=#393C56;rounded=0;labelBackgroundColor=none;strokeWidth=1;" parent="vmr4mE0VQ1Etyp4nwSTQ-1" vertex="1"><mxGeometry y="330" width="200" height="30" as="geometry"/></mxCell><mxCell id="vmr4mE0VQ1Etyp4nwSTQ-15" value="cidadeNatal" style="text;strokeColor=#E07A5F;fillColor=none;align=left;verticalAlign=middle;spacingLeft=4;spacingRight=4;overflow=hidden;points=[[0,0.5],[1,0.5]];portConstraint=eastwest;rotatable=0;fontColor=#393C56;rounded=0;labelBackgroundColor=none;strokeWidth=1;" parent="vmr4mE0VQ1Etyp4nwSTQ-1" vertex="1"><mxGeometry y="360" width="200" height="30" as="geometry"/></mxCell><mxCell id="vmr4mE0VQ1Etyp4nwSTQ-17" value="estrangeiro" style="text;strokeColor=#E07A5F;fillColor=none;align=left;verticalAlign=middle;spacingLeft=4;spacingRight=4;overflow=hidden;points=[[0,0.5],[1,0.5]];portConstraint=eastwest;rotatable=0;fontColor=#393C56;rounded=0;labelBackgroundColor=none;strokeWidth=1;" parent="vmr4mE0VQ1Etyp4nwSTQ-1" vertex="1"><mxGeometry y="390" width="200" height="30" as="geometry"/></mxCell><mxCell id="vmr4mE0VQ1Etyp4nwSTQ-20" value="dadoAcademico" style="text;strokeColor=#E07A5F;fillColor=none;align=left;verticalAlign=middle;spacingLeft=4;spacingRight=4;overflow=hidden;points=[[0,0.5],[1,0.5]];portConstraint=eastwest;rotatable=0;fontColor=#393C56;rounded=0;labelBackgroundColor=none;strokeWidth=1;" parent="vmr4mE0VQ1Etyp4nwSTQ-1" vertex="1"><mxGeometry y="420" width="200" height="30" as="geometry"/></mxCell><mxCell id="uFJoaVmChpkuxRk4t4Tf-25" value="dadoProfissional" style="text;strokeColor=#E07A5F;fillColor=none;align=left;verticalAlign=middle;spacingLeft=4;spacingRight=4;overflow=hidden;points=[[0,0.5],[1,0.5]];portConstraint=eastwest;rotatable=0;fontColor=#393C56;rounded=0;labelBackgroundColor=none;strokeWidth=1;" parent="vmr4mE0VQ1Etyp4nwSTQ-1" vertex="1"><mxGeometry y="450" width="200" height="30" as="geometry"/></mxCell><mxCell id="3MisZbKRAyRNBX8BG2Sv-3" value="Curso" style="swimlane;fontStyle=1;childLayout=stackLayout;horizontal=1;startSize=30;horizontalStack=0;resizeParent=1;resizeParentMax=0;resizeLast=0;collapsible=1;marginBottom=0;fillColor=#F2CC8F;strokeColor=#E07A5F;fontColor=#393C56;rounded=0;fontSize=13;labelBackgroundColor=none;strokeWidth=1;" parent="1" vertex="1"><mxGeometry x="270" y="1110" width="160" height="180" as="geometry"/></mxCell><mxCell id="3MisZbKRAyRNBX8BG2Sv-4" value="cursoID" style="text;strokeColor=#E07A5F;fillColor=none;align=left;verticalAlign=middle;spacingLeft=4;spacingRight=4;overflow=hidden;points=[[0,0.5],[1,0.5]];portConstraint=eastwest;rotatable=0;fontColor=#393C56;rounded=0;shadow=0;glass=0;fontStyle=1;labelBackgroundColor=none;strokeWidth=1;" parent="3MisZbKRAyRNBX8BG2Sv-3" vertex="1"><mxGeometry y="30" width="160" height="30" as="geometry"/></mxCell><mxCell id="3MisZbKRAyRNBX8BG2Sv-7" value="metodologia" style="text;strokeColor=#E07A5F;fillColor=none;align=left;verticalAlign=middle;spacingLeft=4;spacingRight=4;overflow=hidden;points=[[0,0.5],[1,0.5]];portConstraint=eastwest;rotatable=0;fontColor=#393C56;rounded=0;labelBackgroundColor=none;strokeWidth=1;" parent="3MisZbKRAyRNBX8BG2Sv-3" vertex="1"><mxGeometry y="60" width="160" height="30" as="geometry"/></mxCell><mxCell id="3MisZbKRAyRNBX8BG2Sv-11" value="numHorasAulaCurso" style="text;strokeColor=#E07A5F;fillColor=none;align=left;verticalAlign=middle;spacingLeft=4;spacingRight=4;overflow=hidden;points=[[0,0.5],[1,0.5]];portConstraint=eastwest;rotatable=0;fontColor=#393C56;rounded=0;labelBackgroundColor=none;strokeWidth=1;" parent="3MisZbKRAyRNBX8BG2Sv-3" vertex="1"><mxGeometry y="90" width="160" height="30" as="geometry"/></mxCell><mxCell id="3MisZbKRAyRNBX8BG2Sv-12" value="duracaoCurso" style="text;strokeColor=#E07A5F;fillColor=none;align=left;verticalAlign=middle;spacingLeft=4;spacingRight=4;overflow=hidden;points=[[0,0.5],[1,0.5]];portConstraint=eastwest;rotatable=0;fontColor=#393C56;rounded=0;labelBackgroundColor=none;strokeWidth=1;" parent="3MisZbKRAyRNBX8BG2Sv-3" vertex="1"><mxGeometry y="120" width="160" height="30" as="geometry"/></mxCell><mxCell id="3MisZbKRAyRNBX8BG2Sv-15" value="descficao" style="text;strokeColor=#E07A5F;fillColor=none;align=left;verticalAlign=middle;spacingLeft=4;spacingRight=4;overflow=hidden;points=[[0,0.5],[1,0.5]];portConstraint=eastwest;rotatable=0;fontColor=#393C56;rounded=0;labelBackgroundColor=none;strokeWidth=1;" parent="3MisZbKRAyRNBX8BG2Sv-3" vertex="1"><mxGeometry y="150" width="160" height="30" as="geometry"/></mxCell></root></mxGraphModel></diagram></mxfile>